<svg width="28" height="28" viewBox="0 0 28 28" fill="none" xmlns="http://www.w3.org/2000/svg">
<path d="M11.706 13.125H9.89551C9.91424 13.6775 9.96827 14.2282 10.0573 14.7737L11.706 13.125Z" fill="#EBA500"/>
<path d="M9.56202 8.82965C8.53376 8.66296 7.51575 8.43826 6.51286 8.15662C5.76141 9.3956 5.33135 10.8027 5.26172 12.25H9.01962C9.05555 11.0916 9.23779 9.94236 9.56202 8.82965Z" fill="#EBA500"/>
<path d="M13.5626 11.2687V9.18361C12.5176 9.16675 11.4744 9.09095 10.438 8.95654C10.115 10.0262 9.93264 11.1333 9.89551 12.25H12.5813L13.5626 11.2687Z" fill="#EBA500"/>
<path d="M11.9601 4.17651C9.99455 4.6441 8.25297 5.78113 7.03418 7.39252C7.95736 7.64046 8.89314 7.83882 9.83752 7.98676C10.3352 6.61064 11.052 5.32398 11.9601 4.17651Z" fill="#EBA500"/>
<path d="M13.5623 8.30861V3.94849C13.471 3.95297 13.38 3.95942 13.2893 3.9667C12.1762 5.17062 11.3058 6.57788 10.7256 8.11141C11.667 8.22709 12.6139 8.29291 13.5623 8.30861Z" fill="#EBA500"/>
<path d="M17.1168 7.71442C16.5399 6.33418 15.7257 5.06571 14.7109 3.96658C14.6201 3.95925 14.529 3.95285 14.4375 3.94836V8.30849C15.1768 8.29635 15.9188 8.25325 16.651 8.18019L17.1168 7.71442Z" fill="#EBA500"/>
<path d="M19.1891 5.64165C18.2485 4.94592 17.1771 4.4474 16.0391 4.17603C16.7362 5.05804 17.3216 6.02288 17.782 7.0486L19.1891 5.64165Z" fill="#EBA500"/>
<path d="M14.4375 9.1836V10.3937L15.6965 9.13477C15.2773 9.16054 14.8576 9.17682 14.4375 9.1836Z" fill="#EBA500"/>
<path d="M9.02034 13.125H5.26172C5.34836 14.8406 5.93707 16.4929 6.95473 17.8768L9.3081 15.5235C9.14235 14.7339 9.04606 13.9314 9.02034 13.125Z" fill="#EBA500"/>
<path d="M21.0456 7.49817L8.81055 19.7332C10.0724 20.6665 11.5635 21.2405 13.1254 21.3942C13.7069 21.4517 14.2927 21.4517 14.8742 21.3942C14.995 21.3822 15.118 21.3672 15.2505 21.3483C15.3125 21.3394 15.3758 21.344 15.4359 21.3617C15.4961 21.3794 15.5517 21.4098 15.599 21.4509C15.6464 21.4919 15.6844 21.5427 15.7104 21.5997C15.7364 21.6568 15.7499 21.7187 15.7499 21.7814V23.381L18.946 19.9186C18.9672 19.8956 18.9908 19.875 19.0163 19.8571C20.8805 18.5523 22.1633 16.5728 22.5927 14.3382C23.022 12.1036 22.5643 9.78965 21.3164 7.88689C21.2303 7.75564 21.14 7.62606 21.0456 7.49817ZM14 17.9375C13.8269 17.9375 13.6578 17.8861 13.5139 17.79C13.37 17.6939 13.2578 17.5572 13.1916 17.3973C13.1254 17.2374 13.1081 17.0615 13.1418 16.8918C13.1756 16.722 13.2589 16.5661 13.3813 16.4437C13.5037 16.3214 13.6596 16.238 13.8293 16.2043C13.999 16.1705 14.175 16.1878 14.3349 16.2541C14.4947 16.3203 14.6314 16.4324 14.7275 16.5763C14.8237 16.7202 14.875 16.8894 14.875 17.0625C14.875 17.2945 14.7828 17.5171 14.6187 17.6812C14.4546 17.8453 14.2321 17.9375 14 17.9375ZM16.625 17.9375C16.452 17.9375 16.2828 17.8861 16.1389 17.79C15.995 17.6939 15.8828 17.5572 15.8166 17.3973C15.7504 17.2374 15.7331 17.0615 15.7668 16.8918C15.8006 16.722 15.8839 16.5661 16.0063 16.4437C16.1287 16.3214 16.2846 16.238 16.4543 16.2043C16.624 16.1705 16.8 16.1878 16.9599 16.2541C17.1197 16.3203 17.2564 16.4324 17.3525 16.5763C17.4487 16.7202 17.5 16.8894 17.5 17.0625C17.5 17.2945 17.4078 17.5171 17.2437 17.6812C17.0796 17.8453 16.8571 17.9375 16.625 17.9375ZM19.25 17.9375C19.077 17.9375 18.9078 17.8861 18.7639 17.79C18.62 17.6939 18.5078 17.5572 18.4416 17.3973C18.3754 17.2374 18.3581 17.0615 18.3918 16.8918C18.4256 16.722 18.5089 16.5661 18.6313 16.4437C18.7537 16.3214 18.9096 16.238 19.0793 16.2043C19.249 16.1705 19.425 16.1878 19.5849 16.2541C19.7447 16.3203 19.8814 16.4324 19.9775 16.5763C20.0737 16.7202 20.125 16.8894 20.125 17.0625C20.125 17.2945 20.0328 17.5171 19.8687 17.6812C19.7046 17.8453 19.4821 17.9375 19.25 17.9375Z" fill="#EBA500"/>
<path d="M4.50463 3.98394C2.44632 6.02263 1.17714 8.72483 0.92245 11.6107C0.667764 14.4965 1.44406 17.3792 3.11349 19.7469L2.7438 19.6922C2.68696 19.6838 2.62902 19.6866 2.57329 19.7006C2.51756 19.7146 2.46513 19.7394 2.41899 19.7736C2.32581 19.8428 2.26391 19.9461 2.24691 20.0609C2.22991 20.1757 2.2592 20.2925 2.32835 20.3857C2.39749 20.4789 2.50083 20.5408 2.61561 20.5578L4.09217 20.7766C4.14983 20.7851 4.20862 20.782 4.26508 20.7675C4.32153 20.753 4.37452 20.7274 4.42094 20.6921C4.46735 20.6569 4.50624 20.6127 4.53534 20.5622C4.56444 20.5117 4.58315 20.4558 4.59038 20.398L4.75444 19.0855C4.76784 18.9709 4.73538 18.8556 4.66415 18.7647C4.59292 18.6739 4.48868 18.6149 4.37415 18.6006C4.25961 18.5863 4.14406 18.6178 4.05267 18.6883C3.96128 18.7588 3.90145 18.8626 3.88622 18.977L3.84925 19.2723C2.28863 17.0735 1.55973 14.3919 1.79255 11.7056C2.02537 9.01933 3.20476 6.50308 5.12041 4.60557C5.16148 4.56519 5.19417 4.5171 5.21662 4.46406C5.23906 4.41102 5.25081 4.35407 5.25119 4.29648C5.25157 4.23889 5.24058 4.18179 5.21884 4.12845C5.1971 4.07512 5.16505 4.0266 5.12452 3.98569C5.08399 3.94477 5.03578 3.91226 4.98265 3.89002C4.92952 3.86778 4.87253 3.85624 4.81494 3.85608C4.75734 3.85592 4.70028 3.86713 4.64703 3.88907C4.59378 3.91101 4.54539 3.94325 4.50463 3.98394Z" fill="#EBA500"/>
<path d="M24.5285 5.25H24.8573C24.9734 5.25 25.0847 5.20391 25.1667 5.12186C25.2488 5.03981 25.2948 4.92853 25.2948 4.8125C25.2948 4.69647 25.2488 4.58519 25.1667 4.50314C25.0847 4.42109 24.9734 4.375 24.8573 4.375H23.5448C23.4288 4.375 23.3175 4.42109 23.2355 4.50314C23.1534 4.58519 23.1073 4.69647 23.1073 4.8125V6.125C23.1073 6.24103 23.1534 6.35231 23.2355 6.43436C23.3175 6.51641 23.4288 6.5625 23.5448 6.5625C23.6609 6.5625 23.7722 6.51641 23.8542 6.43436C23.9363 6.35231 23.9823 6.24103 23.9823 6.125V5.98073C25.5763 8.16428 26.3405 10.8441 26.1378 13.54C25.9352 16.2358 24.7791 18.7713 22.8767 20.6921C22.795 20.7745 22.7495 20.8861 22.75 21.0021C22.7506 21.1181 22.7972 21.2292 22.8796 21.3108C22.9621 21.3925 23.0736 21.4381 23.1896 21.4375C23.3056 21.437 23.4167 21.3903 23.4984 21.3079C25.5796 19.2066 26.8303 16.4233 27.0197 13.4718C27.209 10.5203 26.3242 7.60002 24.5285 5.25Z" fill="#EBA500"/>
</svg>
